<mxfile host="app.diagrams.net" modified="2023-05-16T20:13:35.227Z" agent="Mozilla/5.0 (Windows NT 10.0; Win64; x64) AppleWebKit/537.36 (KHTML, like Gecko) Chrome/113.0.0.0 Safari/537.36" etag="rgCdS5eUa5U2R1ftabUI" version="21.3.2" type="github">
  <diagram name="PÃ¡gina-1" id="XcAIbUgZLlD4U-p4e8hd">
    <mxGraphModel dx="2327" dy="784" grid="1" gridSize="10" guides="1" tooltips="1" connect="1" arrows="1" fold="1" page="1" pageScale="1" pageWidth="827" pageHeight="1169" math="0" shadow="0">
      <root>
        <mxCell id="0" />
        <mxCell id="1" parent="0" />
        <mxCell id="zvCnp9KUacm5tWpYoM_k-1" value="" style="rounded=1;whiteSpace=wrap;html=1;strokeWidth=1;perimeterSpacing=3;arcSize=7;" parent="1" vertex="1">
          <mxGeometry x="-530" y="90" width="1110" height="690" as="geometry" />
        </mxCell>
        <mxCell id="zvCnp9KUacm5tWpYoM_k-49" style="edgeStyle=orthogonalEdgeStyle;rounded=0;orthogonalLoop=1;jettySize=auto;html=1;entryX=1;entryY=0.5;entryDx=0;entryDy=0;endArrow=none;endFill=0;" parent="1" source="zvCnp9KUacm5tWpYoM_k-23" target="zvCnp9KUacm5tWpYoM_k-47" edge="1">
          <mxGeometry relative="1" as="geometry">
            <Array as="points">
              <mxPoint x="90" y="380" />
              <mxPoint x="90" y="310" />
            </Array>
          </mxGeometry>
        </mxCell>
        <mxCell id="zvCnp9KUacm5tWpYoM_k-51" style="edgeStyle=orthogonalEdgeStyle;rounded=0;orthogonalLoop=1;jettySize=auto;html=1;entryX=1;entryY=0.5;entryDx=0;entryDy=0;endArrow=none;endFill=0;" parent="1" source="zvCnp9KUacm5tWpYoM_k-23" target="zvCnp9KUacm5tWpYoM_k-48" edge="1">
          <mxGeometry relative="1" as="geometry">
            <Array as="points">
              <mxPoint x="90" y="380" />
              <mxPoint x="90" y="591" />
            </Array>
          </mxGeometry>
        </mxCell>
        <mxCell id="zvCnp9KUacm5tWpYoM_k-23" value="" style="rounded=1;whiteSpace=wrap;html=1;fillColor=#dae8fc;strokeColor=#6c8ebf;" parent="1" vertex="1">
          <mxGeometry x="110" y="210" width="439" height="260" as="geometry" />
        </mxCell>
        <mxCell id="zvCnp9KUacm5tWpYoM_k-22" value="" style="rounded=1;whiteSpace=wrap;html=1;fillColor=#dae8fc;strokeColor=#6c8ebf;" parent="1" vertex="1">
          <mxGeometry x="-479" y="470" width="439" height="240" as="geometry" />
        </mxCell>
        <mxCell id="zvCnp9KUacm5tWpYoM_k-21" value="" style="rounded=1;whiteSpace=wrap;html=1;fillColor=#dae8fc;strokeColor=#6c8ebf;" parent="1" vertex="1">
          <mxGeometry x="-479" y="210" width="439" height="200" as="geometry" />
        </mxCell>
        <mxCell id="zvCnp9KUacm5tWpYoM_k-3" value="" style="image;aspect=fixed;html=1;points=[];align=center;fontSize=12;image=img/lib/azure2/compute/Virtual_Machine.svg;" parent="1" vertex="1">
          <mxGeometry x="-288.5" y="278" width="69" height="64" as="geometry" />
        </mxCell>
        <mxCell id="zvCnp9KUacm5tWpYoM_k-4" value="" style="image;aspect=fixed;html=1;points=[];align=center;fontSize=12;image=img/lib/azure2/compute/Virtual_Machine.svg;" parent="1" vertex="1">
          <mxGeometry x="-340" y="598" width="69" height="64" as="geometry" />
        </mxCell>
        <mxCell id="zvCnp9KUacm5tWpYoM_k-5" value="" style="image;aspect=fixed;html=1;points=[];align=center;fontSize=12;image=img/lib/azure2/compute/Virtual_Machine.svg;" parent="1" vertex="1">
          <mxGeometry x="-240" y="598" width="69" height="64" as="geometry" />
        </mxCell>
        <mxCell id="zvCnp9KUacm5tWpYoM_k-7" value="" style="image;aspect=fixed;html=1;points=[];align=center;fontSize=12;image=img/lib/azure2/networking/Private_Endpoint.svg;" parent="1" vertex="1">
          <mxGeometry x="337" y="651" width="72" height="66" as="geometry" />
        </mxCell>
        <mxCell id="zvCnp9KUacm5tWpYoM_k-8" value="" style="image;aspect=fixed;html=1;points=[];align=center;fontSize=12;image=img/lib/azure2/networking/Virtual_Networks.svg;" parent="1" vertex="1">
          <mxGeometry x="120" y="220" width="67" height="40" as="geometry" />
        </mxCell>
        <mxCell id="zvCnp9KUacm5tWpYoM_k-9" value="" style="image;aspect=fixed;html=1;points=[];align=center;fontSize=12;image=img/lib/azure2/networking/Virtual_Networks.svg;" parent="1" vertex="1">
          <mxGeometry x="-470" y="486" width="67" height="40" as="geometry" />
        </mxCell>
        <mxCell id="zvCnp9KUacm5tWpYoM_k-10" value="" style="image;aspect=fixed;html=1;points=[];align=center;fontSize=12;image=img/lib/azure2/networking/Virtual_Networks.svg;" parent="1" vertex="1">
          <mxGeometry x="-470" y="220" width="67" height="40" as="geometry" />
        </mxCell>
        <mxCell id="zvCnp9KUacm5tWpYoM_k-12" value="" style="image;aspect=fixed;html=1;points=[];align=center;fontSize=12;image=img/lib/azure2/networking/Network_Security_Groups.svg;" parent="1" vertex="1">
          <mxGeometry x="-200" y="232" width="56.00000000000001" height="68" as="geometry" />
        </mxCell>
        <mxCell id="zvCnp9KUacm5tWpYoM_k-13" value="" style="image;aspect=fixed;html=1;points=[];align=center;fontSize=12;image=img/lib/azure2/networking/Network_Security_Groups.svg;" parent="1" vertex="1">
          <mxGeometry x="-135" y="487" width="56.00000000000001" height="68" as="geometry" />
        </mxCell>
        <mxCell id="zvCnp9KUacm5tWpYoM_k-15" value="" style="image;aspect=fixed;html=1;points=[];align=center;fontSize=12;image=img/lib/azure2/storage/Azure_Fileshare.svg;" parent="1" vertex="1">
          <mxGeometry x="240" y="650" width="68" height="68" as="geometry" />
        </mxCell>
        <mxCell id="zvCnp9KUacm5tWpYoM_k-16" value="" style="image;aspect=fixed;html=1;points=[];align=center;fontSize=12;image=img/lib/azure2/storage/Storage_Accounts.svg;" parent="1" vertex="1">
          <mxGeometry x="150" y="658" width="65" height="52" as="geometry" />
        </mxCell>
        <mxCell id="zvCnp9KUacm5tWpYoM_k-60" style="edgeStyle=orthogonalEdgeStyle;rounded=0;orthogonalLoop=1;jettySize=auto;html=1;entryX=0.5;entryY=1;entryDx=0;entryDy=0;dashed=1;" parent="1" source="zvCnp9KUacm5tWpYoM_k-18" target="zvCnp9KUacm5tWpYoM_k-23" edge="1">
          <mxGeometry relative="1" as="geometry" />
        </mxCell>
        <mxCell id="zvCnp9KUacm5tWpYoM_k-61" style="edgeStyle=orthogonalEdgeStyle;rounded=0;orthogonalLoop=1;jettySize=auto;html=1;entryX=1;entryY=0.75;entryDx=0;entryDy=0;dashed=1;" parent="1" source="zvCnp9KUacm5tWpYoM_k-18" target="zvCnp9KUacm5tWpYoM_k-21" edge="1">
          <mxGeometry relative="1" as="geometry">
            <Array as="points">
              <mxPoint x="472" y="560" />
              <mxPoint x="50" y="560" />
              <mxPoint x="50" y="360" />
            </Array>
          </mxGeometry>
        </mxCell>
        <mxCell id="zvCnp9KUacm5tWpYoM_k-62" style="edgeStyle=orthogonalEdgeStyle;rounded=0;orthogonalLoop=1;jettySize=auto;html=1;entryX=0.972;entryY=0.708;entryDx=0;entryDy=0;entryPerimeter=0;dashed=1;" parent="1" source="zvCnp9KUacm5tWpYoM_k-18" target="zvCnp9KUacm5tWpYoM_k-22" edge="1">
          <mxGeometry relative="1" as="geometry">
            <Array as="points">
              <mxPoint x="472" y="610" />
              <mxPoint x="120" y="610" />
              <mxPoint x="120" y="640" />
            </Array>
          </mxGeometry>
        </mxCell>
        <mxCell id="zvCnp9KUacm5tWpYoM_k-18" value="" style="image;aspect=fixed;html=1;points=[];align=center;fontSize=12;image=img/lib/azure2/networking/DNS_Zones.svg;" parent="1" vertex="1">
          <mxGeometry x="440" y="654" width="64" height="64" as="geometry" />
        </mxCell>
        <mxCell id="zvCnp9KUacm5tWpYoM_k-37" style="edgeStyle=orthogonalEdgeStyle;rounded=0;orthogonalLoop=1;jettySize=auto;html=1;" parent="1" source="zvCnp9KUacm5tWpYoM_k-19" target="zvCnp9KUacm5tWpYoM_k-4" edge="1">
          <mxGeometry relative="1" as="geometry">
            <Array as="points">
              <mxPoint x="-305" y="536" />
            </Array>
          </mxGeometry>
        </mxCell>
        <mxCell id="zvCnp9KUacm5tWpYoM_k-38" style="edgeStyle=orthogonalEdgeStyle;rounded=0;orthogonalLoop=1;jettySize=auto;html=1;" parent="1" source="zvCnp9KUacm5tWpYoM_k-19" target="zvCnp9KUacm5tWpYoM_k-5" edge="1">
          <mxGeometry relative="1" as="geometry">
            <Array as="points">
              <mxPoint x="-205" y="536" />
            </Array>
          </mxGeometry>
        </mxCell>
        <mxCell id="zvCnp9KUacm5tWpYoM_k-19" value="" style="image;aspect=fixed;html=1;points=[];align=center;fontSize=12;image=img/lib/azure2/networking/Load_Balancers.svg;" parent="1" vertex="1">
          <mxGeometry x="-290" y="500" width="72" height="72" as="geometry" />
        </mxCell>
        <mxCell id="zvCnp9KUacm5tWpYoM_k-24" value="stolabllk" style="text;html=1;align=center;verticalAlign=middle;resizable=0;points=[];autosize=1;strokeColor=none;fillColor=none;" parent="1" vertex="1">
          <mxGeometry x="147.5" y="718" width="70" height="30" as="geometry" />
        </mxCell>
        <mxCell id="zvCnp9KUacm5tWpYoM_k-25" value="share" style="text;html=1;align=center;verticalAlign=middle;resizable=0;points=[];autosize=1;strokeColor=none;fillColor=none;" parent="1" vertex="1">
          <mxGeometry x="253" y="718" width="50" height="30" as="geometry" />
        </mxCell>
        <mxCell id="zvCnp9KUacm5tWpYoM_k-26" value="private&lt;br&gt;endpoint" style="text;html=1;align=center;verticalAlign=middle;resizable=0;points=[];autosize=1;strokeColor=none;fillColor=none;" parent="1" vertex="1">
          <mxGeometry x="337" y="716" width="70" height="40" as="geometry" />
        </mxCell>
        <mxCell id="zvCnp9KUacm5tWpYoM_k-27" value="Zona DNS&lt;br&gt;Privada" style="text;html=1;align=center;verticalAlign=middle;resizable=0;points=[];autosize=1;strokeColor=none;fillColor=none;" parent="1" vertex="1">
          <mxGeometry x="433" y="721" width="80" height="40" as="geometry" />
        </mxCell>
        <mxCell id="zvCnp9KUacm5tWpYoM_k-28" value="vnet-spoke02&lt;br&gt;10.10.0.0/24" style="text;html=1;align=center;verticalAlign=middle;resizable=0;points=[];autosize=1;strokeColor=none;fillColor=none;" parent="1" vertex="1">
          <mxGeometry x="-486.5" y="526" width="100" height="40" as="geometry" />
        </mxCell>
        <mxCell id="zvCnp9KUacm5tWpYoM_k-29" value="vnet-spoke01&lt;br&gt;10.20.0.0/24" style="text;html=1;align=center;verticalAlign=middle;resizable=0;points=[];autosize=1;strokeColor=none;fillColor=none;" parent="1" vertex="1">
          <mxGeometry x="-479" y="260" width="100" height="40" as="geometry" />
        </mxCell>
        <mxCell id="zvCnp9KUacm5tWpYoM_k-30" value="vm-linux" style="text;html=1;align=center;verticalAlign=middle;resizable=0;points=[];autosize=1;strokeColor=none;fillColor=none;" parent="1" vertex="1">
          <mxGeometry x="-294.5" y="342" width="70" height="30" as="geometry" />
        </mxCell>
        <mxCell id="zvCnp9KUacm5tWpYoM_k-31" value="nsg-lnx" style="text;html=1;align=center;verticalAlign=middle;resizable=0;points=[];autosize=1;strokeColor=none;fillColor=none;" parent="1" vertex="1">
          <mxGeometry x="-202" y="310" width="60" height="30" as="geometry" />
        </mxCell>
        <mxCell id="zvCnp9KUacm5tWpYoM_k-32" value="sub-srv&lt;br&gt;10.20.1.0/24" style="text;html=1;align=center;verticalAlign=middle;resizable=0;points=[];autosize=1;strokeColor=none;fillColor=none;" parent="1" vertex="1">
          <mxGeometry x="-360" y="232" width="90" height="40" as="geometry" />
        </mxCell>
        <mxCell id="zvCnp9KUacm5tWpYoM_k-33" value="sub-srv&lt;br&gt;10.10.1.0/24" style="text;html=1;align=center;verticalAlign=middle;resizable=0;points=[];autosize=1;strokeColor=none;fillColor=none;" parent="1" vertex="1">
          <mxGeometry x="-373" y="487" width="90" height="40" as="geometry" />
        </mxCell>
        <mxCell id="zvCnp9KUacm5tWpYoM_k-34" value="nsg-web" style="text;html=1;align=center;verticalAlign=middle;resizable=0;points=[];autosize=1;strokeColor=none;fillColor=none;" parent="1" vertex="1">
          <mxGeometry x="-144" y="555" width="70" height="30" as="geometry" />
        </mxCell>
        <mxCell id="zvCnp9KUacm5tWpYoM_k-35" value="vm-web01" style="text;html=1;align=center;verticalAlign=middle;resizable=0;points=[];autosize=1;strokeColor=none;fillColor=none;" parent="1" vertex="1">
          <mxGeometry x="-346" y="662" width="80" height="30" as="geometry" />
        </mxCell>
        <mxCell id="zvCnp9KUacm5tWpYoM_k-36" value="vm-web02" style="text;html=1;align=center;verticalAlign=middle;resizable=0;points=[];autosize=1;strokeColor=none;fillColor=none;" parent="1" vertex="1">
          <mxGeometry x="-245.5" y="662" width="80" height="30" as="geometry" />
        </mxCell>
        <mxCell id="zvCnp9KUacm5tWpYoM_k-39" value="ib-internal" style="text;html=1;align=center;verticalAlign=middle;resizable=0;points=[];autosize=1;strokeColor=none;fillColor=none;" parent="1" vertex="1">
          <mxGeometry x="-294.5" y="566" width="80" height="30" as="geometry" />
        </mxCell>
        <mxCell id="zvCnp9KUacm5tWpYoM_k-40" value="" style="image;aspect=fixed;html=1;points=[];align=center;fontSize=12;image=img/lib/azure2/security/Application_Security_Groups.svg;" parent="1" vertex="1">
          <mxGeometry x="-137" y="600" width="56.00000000000001" height="68" as="geometry" />
        </mxCell>
        <mxCell id="zvCnp9KUacm5tWpYoM_k-41" value="asg-web" style="text;html=1;align=center;verticalAlign=middle;resizable=0;points=[];autosize=1;strokeColor=none;fillColor=none;" parent="1" vertex="1">
          <mxGeometry x="-145" y="669" width="70" height="30" as="geometry" />
        </mxCell>
        <mxCell id="zvCnp9KUacm5tWpYoM_k-42" value="vnet-huv&lt;br&gt;192.168.0.0/16" style="text;html=1;align=center;verticalAlign=middle;resizable=0;points=[];autosize=1;strokeColor=none;fillColor=none;" parent="1" vertex="1">
          <mxGeometry x="105" y="270" width="100" height="40" as="geometry" />
        </mxCell>
        <mxCell id="zvCnp9KUacm5tWpYoM_k-50" style="edgeStyle=orthogonalEdgeStyle;rounded=0;orthogonalLoop=1;jettySize=auto;html=1;exitX=0;exitY=0.5;exitDx=0;exitDy=0;entryX=1;entryY=0.5;entryDx=0;entryDy=0;endArrow=none;endFill=0;" parent="1" source="zvCnp9KUacm5tWpYoM_k-47" target="zvCnp9KUacm5tWpYoM_k-21" edge="1">
          <mxGeometry relative="1" as="geometry" />
        </mxCell>
        <mxCell id="zvCnp9KUacm5tWpYoM_k-47" value="" style="shape=image;verticalLabelPosition=bottom;labelBackgroundColor=default;verticalAlign=top;aspect=fixed;imageAspect=0;image=data:image/png,iVBORw0KGgoAAAANSUhEUgAAACgAAAAqCAYAAADBNhlmAAALEElEQVRYhc2YeXTU5bnHP7/ZJzPJTCYzWckkZCGQhEBiwqIiWspSMZVa0dZii3bxelx7l+PtZnt6tL32tKct9dgrt0hFpUpFKAioqGihYRGBQNZJSDJZZyaZZJLZ11//GBwYkxCa9p72++f7e5/n/c4zzy6IoijyLwzJP5vATPiXJyj7exVEwjFczgA+Tzh+IEBWrgal+u9WDcyS4ECPm4//bKP5o2F6OyeIhGPEYpddWaGQkGZQUlFnorLORGWtEYVqdoSFawkSURQJB2OcOWpj97Z2Oi6MEouKCAJIZQI5Zi36DFXi7qDVw9hwABFAhHSTirV3FfH5r5WiSZXHHxaEfwzBgD+CpXGUP25to73RiUYrJ7dAy3Urc6hdmY25RAeAZyJEKBDFkKkGYGIsSPPpYc7+xU7L6RGcdj8qjYz6TSXcsC4fY7YaqWzmELgqwaFeD0f2WXnz5U7SdAqqV2Rxw5p85ldnIJNfVj486OPAzk6sHeN8+aEK5lUZkvSM2H2cfHeQ44cH6Gl3UVJp4LZNJVQty0ShlM6OYMvpYfZst/DRB0Ms/2wuq+8sovw6I6qUZF9yDHjZ/X9tfLC/F783QlG5nvv+q4pFy7OS7omiyIjNx/t7rby/x4pUJnD75lJW31mERDL93z0lwaZTDl7+dRNdLS42PriAm9abycrTTBIeG/Gzc0sLDW/34XWHicVAoZJgLtFx7+OVVN+YPUnG7w3TdGqEV59rxmn388VvlFH/1XnTEpzkBD3tLnY930pXq4sHfljD579aOiW5UCjKjl808eEBK8tWz6GoPB2Af39mKf1dbnb88gLnT9gnyak1cmpWZPGt71eTopXzypZm9rzQPjNBURRxjwd55/VuzjU4uP+JRaxcb0Y5TXqQSASy8lOouzmXex+vJN0Yj+Llq/N49Ce1aHQKUtOVU8pKZRLKFmXwnWevRyITeGNbO+ca7EzpbeIlRMJR8YN9PeLGmt3ilu+eEp0OnzgTIpGoGPSHRVEUxR8/cFSsL9t16TwmBnzhGeVFURQbj9vELy/ZI/7g6x+I9n7PpO8JC7qcQfa/1IG5JI01dxdhMKmnNXvCElLJlAlYKhWuuZJULctiw+Z5XGxyceytPkLBaNL3BMG/vNXHQI+HG9blUzRff03K/1G46TYz2WYNJ98bZKDbPZlgJBzjjRcsZOVpuGHNHOSKq+emqWDKScFckjYrgoZMNTfXF2C1jNPZNEokfNmKMoD+rgkmRgOs2lCIMSdlVo/c82gFoUB05otTQK6QMH9xBtn5Ws6fcFB7Sw7pGerLBK0dEyiUUmpWZCUlzVhMnDaJiqKI0+5n7wvtdLW4UKhlXHdTNrfeU4xUOnMJE2MiCPGaLAgCuYVa5ldncOrIIB5XCL1BhSAIcYK2Pg8qjYziivSEApczwJG9VlbWmxP19Up0Nrl45vEGfJ4wOoOSSETk/AkHTScd3P/fi5HKBNL0ShSqye7i84Q5+d4AhWV6Cst0CIKAJlVBboGWcWeQkSE/eXPTEIRLFhwbCVBaaUB1KfLs/R5efa6FYwf7UWlkfO5LxUkPBPwRtj59lmhE5CuPVrDkllw8E2H27ejgvTd6GB7yo9UruOnWOSxfk5/oYD5B38UJ9u3oAOCb36umvMYIgDEnBV2GkostY1QtzwSEeJD43GHMpXEHH+r18NpvWznx7iC3bChg+eq8SRbobnVhaXRSUWdk7V3FmHI1zJ2vZ/N/VrFwqQn3eIhxZ4Bdz7dxrsFOOJzsm+YSHevuLmbUEeC3P/qYM0dtAOgMSjSpcuwD3sRdmc1mY2LcS+E8HaMOP3u2tXPsUD9yuYRoROTNlzoByC3UsvQzufR1uXnpVxeQSAVKKtOTuhqdQcm/PVmD2xWiu83Fi784z84tzTgGvfFc1zLGicODAAT9EVK0cqyWCX7/8/NEozFMOSmo1DL8Pj92mx2JVED20EMPoXWvp6ouF8egjz8f7CXgixCSCHy43wrEg6R6RTbFFem8vrWV5tMj3P61UlZ/sWiSdfOL0y5ZKQ2FUsKu59t49dkWVqybQ2+Hm73bLYm70WgMAKtlnA/393LvtytRqqV0tTt45JEtIMSQ7d69m/95rAGAglIdG+6bxx//t42MLBX3PbGYVJ0CAG2agnAwysiQn2Wr8rj/icWTyF0JrU7B6juLQBDY/kwjh3f3sO7uYn70uxVAPAs0vDPAgZc7STepWXtXEV5PmIAvQkV1Ab958jWkUkk8SKRSCX5fBLVGxm2bSgkFYhzc2cmhP3Ty6FN1idzY3+1GKhMYtLqx93vRpMqRyqZLQxAKRhkbCRCNiswpSiPdpCLdpCIYiHD88ADHDvZhzFHz2E/rWLg0kwunHAT8kSSdMojPDK1nnQlLfeH+eYiiyIFXOnnn9W7ueaQCgKw8DbU357D3BQs/+/ZxShca0KQppiQYi8YYGfJz7rgdU04KZYsud9kD3R727+gg3aTim99bzMIlmUA8WAO+KKYcDcIl15IB6A1KbL1e/J4waq2cVL2SO74xH32GiuobL3fGcoWE+k2laLRymj8eob8ruW5OhUXLMll1RyGZV/SU6SYVn9lQQME8PRW1xsS5Y9DHuDOIuTQNQXKFBXMKU3GPB+mxuFhQYwIgVadg/aYSZJ8abLQ6Bbd+pYRlq/MmdR5TQa2Ro89I7gvTjSrWbCxCKpMkpju3K0hvxwRanYLsPE3iXAaQX5xKMBDl6KG+BEFgErkrzzNzk7vsPdva6Wod4z9+vmxG0sCkhsTW56W90UnVskzSrmh0JRBPnGq1jAsnh+nrmrimBz6Npo+G+fDNvlnJhkNROi6M0mMZp7zWiFb/KYIAdz5QxojNz6n3BomEY7N6aLYYHvLx7u5uyhYZKK1IRyq9HMUJgrfUF2DMVtNweIDOlrGkVcb/N478ycqg1cPSVbnMKU7uKRME0zJU3L65DHufh8O7unE5AzMqDvgiSXXzE4RD0WuSBzh1ZJC3XuuicomJFbeaJw3yCYIymYTaldlcv3YOJ98f4O1d3QQDkWkVR8JR/vSihe3PNNJxYTRxHouKHDvUx9anz2E577wqubZzTn73k3MoVVLq7516vE2abHQGJXd8vQynLd40aFNl0w7VgkRAb1Rx5pgdrzuMvT9uyWNvxcnlmLVIpNNvDNoaR3juh2ew9Xl5+KnrqKgzTXlvys2C5byTZ39wmp72CdZunMu3nqxBJhMmbaQC/ggHdl7kD79pTmr3s/M1PPbTOipqkx8VRZFYTOT8iWG2Pn0Wm9XDw0/VsuoLhdP+kGl3M12tLrb9rBHLOSflNUa+9HA5BaU61BpZElGvO8y+HRb2v9iBZyJMjlnDI0/XUfkpi0QjMRyDPhre7ufNVzoQBIG7H1zAmo1FV13FXXW7NWLzsXe7heOHBwC4ud5M1fJMiheko9VdrsGeiRAHXumk7YyTjQ/Op/yKZB8KRLH1e2g76+TowT4utoxRutDAhs3zWLgkE5ni6vPLzPtBb4TTR4c4dqif5o8caHUK5i/OoGiBnty5qWRkqTFmpyCTS/CMhzBkqrH1eXG7gvR3ubFaxrnYMkbrmRHy5qZx/do8blyXT15h6lV99JoJQryxHHUE6God49T7Qxw/3E8sKpJmUKLRyklJlaO8NByJIrhdIYL+COOjQfy+CHPL9KxYn095jZHcQi1qjXyGF/9Ggp8gFhPxeyP43GEutrpoOT2MtWMcx4APx4CXcChGRqYKU04Khiw1FXUmFtaZ0JtUaFLls1oI/E0E/xn4K8EMAH536tAGAAAAAElFTkSuQmCC;" parent="1" vertex="1">
          <mxGeometry x="20" y="285" width="47.62" height="50" as="geometry" />
        </mxCell>
        <mxCell id="zvCnp9KUacm5tWpYoM_k-52" style="edgeStyle=orthogonalEdgeStyle;rounded=0;orthogonalLoop=1;jettySize=auto;html=1;exitX=0;exitY=0.5;exitDx=0;exitDy=0;entryX=1;entryY=0.5;entryDx=0;entryDy=0;endArrow=none;endFill=0;" parent="1" source="zvCnp9KUacm5tWpYoM_k-48" target="zvCnp9KUacm5tWpYoM_k-22" edge="1">
          <mxGeometry relative="1" as="geometry" />
        </mxCell>
        <mxCell id="zvCnp9KUacm5tWpYoM_k-48" value="" style="shape=image;verticalLabelPosition=bottom;labelBackgroundColor=default;verticalAlign=top;aspect=fixed;imageAspect=0;image=data:image/png,iVBORw0KGgoAAAANSUhEUgAAACgAAAAqCAYAAADBNhlmAAALEElEQVRYhc2YeXTU5bnHP7/ZJzPJTCYzWckkZCGQhEBiwqIiWspSMZVa0dZii3bxelx7l+PtZnt6tL32tKct9dgrt0hFpUpFKAioqGihYRGBQNZJSDJZZyaZZJLZ11//GBwYkxCa9p72++f7e5/n/c4zzy6IoijyLwzJP5vATPiXJyj7exVEwjFczgA+Tzh+IEBWrgal+u9WDcyS4ECPm4//bKP5o2F6OyeIhGPEYpddWaGQkGZQUlFnorLORGWtEYVqdoSFawkSURQJB2OcOWpj97Z2Oi6MEouKCAJIZQI5Zi36DFXi7qDVw9hwABFAhHSTirV3FfH5r5WiSZXHHxaEfwzBgD+CpXGUP25to73RiUYrJ7dAy3Urc6hdmY25RAeAZyJEKBDFkKkGYGIsSPPpYc7+xU7L6RGcdj8qjYz6TSXcsC4fY7YaqWzmELgqwaFeD0f2WXnz5U7SdAqqV2Rxw5p85ldnIJNfVj486OPAzk6sHeN8+aEK5lUZkvSM2H2cfHeQ44cH6Gl3UVJp4LZNJVQty0ShlM6OYMvpYfZst/DRB0Ms/2wuq+8sovw6I6qUZF9yDHjZ/X9tfLC/F783QlG5nvv+q4pFy7OS7omiyIjNx/t7rby/x4pUJnD75lJW31mERDL93z0lwaZTDl7+dRNdLS42PriAm9abycrTTBIeG/Gzc0sLDW/34XWHicVAoZJgLtFx7+OVVN+YPUnG7w3TdGqEV59rxmn388VvlFH/1XnTEpzkBD3tLnY930pXq4sHfljD579aOiW5UCjKjl808eEBK8tWz6GoPB2Af39mKf1dbnb88gLnT9gnyak1cmpWZPGt71eTopXzypZm9rzQPjNBURRxjwd55/VuzjU4uP+JRaxcb0Y5TXqQSASy8lOouzmXex+vJN0Yj+Llq/N49Ce1aHQKUtOVU8pKZRLKFmXwnWevRyITeGNbO+ca7EzpbeIlRMJR8YN9PeLGmt3ilu+eEp0OnzgTIpGoGPSHRVEUxR8/cFSsL9t16TwmBnzhGeVFURQbj9vELy/ZI/7g6x+I9n7PpO8JC7qcQfa/1IG5JI01dxdhMKmnNXvCElLJlAlYKhWuuZJULctiw+Z5XGxyceytPkLBaNL3BMG/vNXHQI+HG9blUzRff03K/1G46TYz2WYNJ98bZKDbPZlgJBzjjRcsZOVpuGHNHOSKq+emqWDKScFckjYrgoZMNTfXF2C1jNPZNEokfNmKMoD+rgkmRgOs2lCIMSdlVo/c82gFoUB05otTQK6QMH9xBtn5Ws6fcFB7Sw7pGerLBK0dEyiUUmpWZCUlzVhMnDaJiqKI0+5n7wvtdLW4UKhlXHdTNrfeU4xUOnMJE2MiCPGaLAgCuYVa5ldncOrIIB5XCL1BhSAIcYK2Pg8qjYziivSEApczwJG9VlbWmxP19Up0Nrl45vEGfJ4wOoOSSETk/AkHTScd3P/fi5HKBNL0ShSqye7i84Q5+d4AhWV6Cst0CIKAJlVBboGWcWeQkSE/eXPTEIRLFhwbCVBaaUB1KfLs/R5efa6FYwf7UWlkfO5LxUkPBPwRtj59lmhE5CuPVrDkllw8E2H27ejgvTd6GB7yo9UruOnWOSxfk5/oYD5B38UJ9u3oAOCb36umvMYIgDEnBV2GkostY1QtzwSEeJD43GHMpXEHH+r18NpvWznx7iC3bChg+eq8SRbobnVhaXRSUWdk7V3FmHI1zJ2vZ/N/VrFwqQn3eIhxZ4Bdz7dxrsFOOJzsm+YSHevuLmbUEeC3P/qYM0dtAOgMSjSpcuwD3sRdmc1mY2LcS+E8HaMOP3u2tXPsUD9yuYRoROTNlzoByC3UsvQzufR1uXnpVxeQSAVKKtOTuhqdQcm/PVmD2xWiu83Fi784z84tzTgGvfFc1zLGicODAAT9EVK0cqyWCX7/8/NEozFMOSmo1DL8Pj92mx2JVED20EMPoXWvp6ouF8egjz8f7CXgixCSCHy43wrEg6R6RTbFFem8vrWV5tMj3P61UlZ/sWiSdfOL0y5ZKQ2FUsKu59t49dkWVqybQ2+Hm73bLYm70WgMAKtlnA/393LvtytRqqV0tTt45JEtIMSQ7d69m/95rAGAglIdG+6bxx//t42MLBX3PbGYVJ0CAG2agnAwysiQn2Wr8rj/icWTyF0JrU7B6juLQBDY/kwjh3f3sO7uYn70uxVAPAs0vDPAgZc7STepWXtXEV5PmIAvQkV1Ab958jWkUkk8SKRSCX5fBLVGxm2bSgkFYhzc2cmhP3Ty6FN1idzY3+1GKhMYtLqx93vRpMqRyqZLQxAKRhkbCRCNiswpSiPdpCLdpCIYiHD88ADHDvZhzFHz2E/rWLg0kwunHAT8kSSdMojPDK1nnQlLfeH+eYiiyIFXOnnn9W7ueaQCgKw8DbU357D3BQs/+/ZxShca0KQppiQYi8YYGfJz7rgdU04KZYsud9kD3R727+gg3aTim99bzMIlmUA8WAO+KKYcDcIl15IB6A1KbL1e/J4waq2cVL2SO74xH32GiuobL3fGcoWE+k2laLRymj8eob8ruW5OhUXLMll1RyGZV/SU6SYVn9lQQME8PRW1xsS5Y9DHuDOIuTQNQXKFBXMKU3GPB+mxuFhQYwIgVadg/aYSZJ8abLQ6Bbd+pYRlq/MmdR5TQa2Ro89I7gvTjSrWbCxCKpMkpju3K0hvxwRanYLsPE3iXAaQX5xKMBDl6KG+BEFgErkrzzNzk7vsPdva6Wod4z9+vmxG0sCkhsTW56W90UnVskzSrmh0JRBPnGq1jAsnh+nrmrimBz6Npo+G+fDNvlnJhkNROi6M0mMZp7zWiFb/KYIAdz5QxojNz6n3BomEY7N6aLYYHvLx7u5uyhYZKK1IRyq9HMUJgrfUF2DMVtNweIDOlrGkVcb/N478ycqg1cPSVbnMKU7uKRME0zJU3L65DHufh8O7unE5AzMqDvgiSXXzE4RD0WuSBzh1ZJC3XuuicomJFbeaJw3yCYIymYTaldlcv3YOJ98f4O1d3QQDkWkVR8JR/vSihe3PNNJxYTRxHouKHDvUx9anz2E577wqubZzTn73k3MoVVLq7516vE2abHQGJXd8vQynLd40aFNl0w7VgkRAb1Rx5pgdrzuMvT9uyWNvxcnlmLVIpNNvDNoaR3juh2ew9Xl5+KnrqKgzTXlvys2C5byTZ39wmp72CdZunMu3nqxBJhMmbaQC/ggHdl7kD79pTmr3s/M1PPbTOipqkx8VRZFYTOT8iWG2Pn0Wm9XDw0/VsuoLhdP+kGl3M12tLrb9rBHLOSflNUa+9HA5BaU61BpZElGvO8y+HRb2v9iBZyJMjlnDI0/XUfkpi0QjMRyDPhre7ufNVzoQBIG7H1zAmo1FV13FXXW7NWLzsXe7heOHBwC4ud5M1fJMiheko9VdrsGeiRAHXumk7YyTjQ/Op/yKZB8KRLH1e2g76+TowT4utoxRutDAhs3zWLgkE5ni6vPLzPtBb4TTR4c4dqif5o8caHUK5i/OoGiBnty5qWRkqTFmpyCTS/CMhzBkqrH1eXG7gvR3ubFaxrnYMkbrmRHy5qZx/do8blyXT15h6lV99JoJQryxHHUE6God49T7Qxw/3E8sKpJmUKLRyklJlaO8NByJIrhdIYL+COOjQfy+CHPL9KxYn095jZHcQi1qjXyGF/9Ggp8gFhPxeyP43GEutrpoOT2MtWMcx4APx4CXcChGRqYKU04Khiw1FXUmFtaZ0JtUaFLls1oI/E0E/xn4K8EMAH536tAGAAAAAElFTkSuQmCC;" parent="1" vertex="1">
          <mxGeometry x="23.810000000000002" y="570" width="40" height="42" as="geometry" />
        </mxCell>
        <mxCell id="zvCnp9KUacm5tWpYoM_k-55" value="" style="rounded=1;whiteSpace=wrap;html=1;fillColor=none;dashed=1;" parent="1" vertex="1">
          <mxGeometry x="-373" y="220" width="263" height="172" as="geometry" />
        </mxCell>
        <mxCell id="zvCnp9KUacm5tWpYoM_k-56" value="" style="rounded=1;whiteSpace=wrap;html=1;fillColor=none;dashed=1;" parent="1" vertex="1">
          <mxGeometry x="-379" y="480" width="319" height="220" as="geometry" />
        </mxCell>
        <mxCell id="zvCnp9KUacm5tWpYoM_k-67" style="edgeStyle=orthogonalEdgeStyle;rounded=0;orthogonalLoop=1;jettySize=auto;html=1;entryX=0;entryY=0.5;entryDx=0;entryDy=0;endArrow=none;endFill=0;" parent="1" source="zvCnp9KUacm5tWpYoM_k-59" target="zvCnp9KUacm5tWpYoM_k-65" edge="1">
          <mxGeometry relative="1" as="geometry">
            <Array as="points">
              <mxPoint x="600" y="335" />
              <mxPoint x="600" y="266" />
            </Array>
          </mxGeometry>
        </mxCell>
        <mxCell id="zvCnp9KUacm5tWpYoM_k-68" style="edgeStyle=orthogonalEdgeStyle;rounded=0;orthogonalLoop=1;jettySize=auto;html=1;endArrow=none;endFill=0;" parent="1" source="zvCnp9KUacm5tWpYoM_k-59" target="zvCnp9KUacm5tWpYoM_k-66" edge="1">
          <mxGeometry relative="1" as="geometry">
            <Array as="points">
              <mxPoint x="600" y="335" />
              <mxPoint x="600" y="410" />
            </Array>
          </mxGeometry>
        </mxCell>
        <mxCell id="zvCnp9KUacm5tWpYoM_k-59" value="" style="rounded=1;whiteSpace=wrap;html=1;fillColor=none;dashed=1;" parent="1" vertex="1">
          <mxGeometry x="386" y="220" width="140" height="230" as="geometry" />
        </mxCell>
        <mxCell id="zvCnp9KUacm5tWpYoM_k-20" value="" style="image;aspect=fixed;html=1;points=[];align=center;fontSize=12;image=img/lib/azure2/networking/Virtual_Network_Gateways.svg;" parent="1" vertex="1">
          <mxGeometry x="430" y="278" width="52" height="69" as="geometry" />
        </mxCell>
        <mxCell id="zvCnp9KUacm5tWpYoM_k-45" value="VPN-VNG01" style="text;html=1;align=center;verticalAlign=middle;resizable=0;points=[];autosize=1;strokeColor=none;fillColor=none;" parent="1" vertex="1">
          <mxGeometry x="416" y="360" width="90" height="30" as="geometry" />
        </mxCell>
        <mxCell id="zvCnp9KUacm5tWpYoM_k-46" value="GatewaySubnet&lt;br&gt;192,168.251.0/27" style="text;html=1;align=center;verticalAlign=middle;resizable=0;points=[];autosize=1;strokeColor=none;fillColor=none;" parent="1" vertex="1">
          <mxGeometry x="396" y="390" width="120" height="40" as="geometry" />
        </mxCell>
        <mxCell id="zvCnp9KUacm5tWpYoM_k-57" value="" style="rounded=1;whiteSpace=wrap;html=1;fillColor=none;dashed=1;" parent="1" vertex="1">
          <mxGeometry x="209" y="220" width="171" height="230" as="geometry" />
        </mxCell>
        <mxCell id="zvCnp9KUacm5tWpYoM_k-6" value="" style="image;aspect=fixed;html=1;points=[];align=center;fontSize=12;image=img/lib/azure2/compute/Virtual_Machine.svg;" parent="1" vertex="1">
          <mxGeometry x="243.5" y="296" width="69" height="64" as="geometry" />
        </mxCell>
        <mxCell id="zvCnp9KUacm5tWpYoM_k-11" value="" style="image;aspect=fixed;html=1;points=[];align=center;fontSize=12;image=img/lib/azure2/networking/Network_Security_Groups.svg;" parent="1" vertex="1">
          <mxGeometry x="317" y="220" width="56.00000000000001" height="68" as="geometry" />
        </mxCell>
        <mxCell id="zvCnp9KUacm5tWpYoM_k-44" value="vm-hub" style="text;html=1;align=center;verticalAlign=middle;resizable=0;points=[];autosize=1;strokeColor=none;fillColor=none;" parent="1" vertex="1">
          <mxGeometry x="248" y="372" width="60" height="30" as="geometry" />
        </mxCell>
        <mxCell id="zvCnp9KUacm5tWpYoM_k-58" value="nsg-hub" style="text;html=1;align=center;verticalAlign=middle;resizable=0;points=[];autosize=1;strokeColor=none;fillColor=none;" parent="1" vertex="1">
          <mxGeometry x="310" y="295" width="70" height="30" as="geometry" />
        </mxCell>
        <mxCell id="zvCnp9KUacm5tWpYoM_k-63" value="" style="shape=image;verticalLabelPosition=bottom;labelBackgroundColor=default;verticalAlign=top;aspect=fixed;imageAspect=0;image=https://www.azureexperts.com.br/wp-content/uploads/2019/10/rg08.jpg;" parent="1" vertex="1">
          <mxGeometry x="-479" y="120" width="85.5" height="61" as="geometry" />
        </mxCell>
        <mxCell id="zvCnp9KUacm5tWpYoM_k-64" value="RG-LABS-LLK" style="text;html=1;align=center;verticalAlign=middle;resizable=0;points=[];autosize=1;strokeColor=none;fillColor=none;" parent="1" vertex="1">
          <mxGeometry x="-486.25" y="180" width="100" height="30" as="geometry" />
        </mxCell>
        <mxCell id="zvCnp9KUacm5tWpYoM_k-65" value="" style="shape=image;verticalLabelPosition=bottom;labelBackgroundColor=default;verticalAlign=top;aspect=fixed;imageAspect=0;image=https://www.azureexperts.com.br/wp-content/uploads/2019/10/rg08.jpg;" parent="1" vertex="1">
          <mxGeometry x="648.09" y="225.75" width="112.83" height="80.5" as="geometry" />
        </mxCell>
        <mxCell id="zvCnp9KUacm5tWpYoM_k-66" value="" style="image;aspect=fixed;html=1;points=[];align=center;fontSize=12;image=img/lib/azure2/compute/Virtual_Machine.svg;" parent="1" vertex="1">
          <mxGeometry x="670" y="378" width="69" height="64" as="geometry" />
        </mxCell>
        <mxCell id="zvCnp9KUacm5tWpYoM_k-69" value="S2S" style="text;html=1;align=center;verticalAlign=middle;resizable=0;points=[];autosize=1;strokeColor=none;fillColor=none;" parent="1" vertex="1">
          <mxGeometry x="590" y="225.75" width="50" height="30" as="geometry" />
        </mxCell>
        <mxCell id="zvCnp9KUacm5tWpYoM_k-70" value="P2S" style="text;html=1;align=center;verticalAlign=middle;resizable=0;points=[];autosize=1;strokeColor=none;fillColor=none;" parent="1" vertex="1">
          <mxGeometry x="590" y="412" width="50" height="30" as="geometry" />
        </mxCell>
        <mxCell id="9oxDDvPWoMJMMSc9-nb9-1" value="" style="image;aspect=fixed;html=1;points=[];align=center;fontSize=12;image=img/lib/azure2/networking/Bastions.svg;" vertex="1" parent="1">
          <mxGeometry x="323.5" y="335" width="43" height="50.41" as="geometry" />
        </mxCell>
        <mxCell id="9oxDDvPWoMJMMSc9-nb9-2" value="Bastion" style="text;html=1;align=center;verticalAlign=middle;resizable=0;points=[];autosize=1;strokeColor=none;fillColor=none;" vertex="1" parent="1">
          <mxGeometry x="317" y="382" width="60" height="30" as="geometry" />
        </mxCell>
      </root>
    </mxGraphModel>
  </diagram>
</mxfile>
